<svg xmlns="http://www.w3.org/2000/svg" xmlns:svg="http://www.w3.org/2000/svg" id="Product_Icon" width="75" height="75" data-name="Product Icon" version="1.1" viewBox="0 0 75 75"><metadata id="metadata25"/><title id="title2">Amazon-API-Gateway_light-bg</title><rect id="Purple_Light_BG" width="75" height="75" x="0" y="0" data-name="Purple Light BG" style="fill:#693cc5"/><g id="Product_Icon-2" data-name="Product Icon"><path style="fill:#fff" id="path5" d="M 48.51,61.5 A 1,1 0 0 1 47.92,61.31 1,1 0 0 1 47.5,60.5 v -46 a 1,1 0 0 1 0.48,-0.85 1,1 0 0 1 1,-0.05 l 13,6.35 a 1,1 0 0 1 0.56,0.89 v 35.34 a 1,1 0 0 1 -0.69,1 l -13,4.32 a 1.19,1.19 0 0 1 -0.34,0 z m 1,-45.39 v 43 l 11,-3.65 v -34 z"/><path style="fill:#fff" id="path7" d="m 26.5,61.5 a 1.19,1.19 0 0 1 -0.32,0 l -13,-4.32 a 1,1 0 0 1 -0.68,-1 V 20.84 a 1,1 0 0 1 0.56,-0.89 l 13,-6.35 a 1,1 0 0 1 1,0.05 1,1 0 0 1 0.47,0.85 v 46 a 1,1 0 0 1 -0.42,0.81 0.94,0.94 0 0 1 -0.61,0.19 z m -12,-6 11,3.65 v -43 l -11,5.37 z"/><path style="fill:#fff" id="path9" d="m 47.5,27.5 h -3 v -2 h 3 z m -6,0 h -3 v -2 h 3 z m -6,0 h -3 v -2 h 3 z m -6,0 h -3 v -2 h 3 z"/><path style="fill:#fff" id="path11" d="m 47.5,49.5 h -3 v -2 h 3 z m -6,0 h -3 v -2 h 3 z m -6,0 h -3 v -2 h 3 z m -6,0 h -3 v -2 h 3 z"/><path style="fill:#fff" id="path13" d="m 33.11,40.94 -3.76,-3.21 a 1,1 0 0 1 0,-1.52 L 33.1,33 34.4,34.52 31.54,37 34.4,39.45 Z"/><path style="fill:#fff" id="path15" d="M 41.9,40.94 40.6,39.42 43.46,37 40.59,34.56 41.89,33 l 3.76,3.2 a 1,1 0 0 1 0,1.52 z"/><rect style="fill:#fff" id="rect17" width="12.41" height="2" x="31.29" y="36.5" transform="rotate(-71.32,37.487833,37.496371)"/></g></svg>