<svg xmlns="http://www.w3.org/2000/svg" xmlns:svg="http://www.w3.org/2000/svg" id="Product_Icon" width="75" height="75" data-name="Product Icon" version="1.1" viewBox="0 0 75 75"><metadata id="metadata4110"/><title id="title4091">Amazon-EC2-Auto-Scaling_light-bg</title><rect id="Orange_Light_BG" width="75" height="75" x="0" y="0" data-name="Orange Light BG" style="fill:#d86613"/><g id="Product_Icon-2" data-name="Product Icon"><path style="fill:#fff" id="path4094" d="m 36.5,15.91 v 9.58 h 2 v -9.58 l 4.66,4.66 1.41,-1.42 -6.36,-6.36 a 1,1 0 0 0 -1.42,0 l -6.36,6.36 1.41,1.42 z"/><path style="fill:#fff" id="path4096" d="m 38.5,59.08 v -9.59 h -2 v 9.59 l -4.66,-4.66 -1.41,1.42 6.36,6.36 a 1,1 0 0 0 1.42,0 l 6.36,-6.36 -1.41,-1.42 z"/><path style="fill:#fff" id="path4098" d="m 44.5,29.65 v -2.16 h -2 v 2 h -2 v -2 h -2 v 2 h -2 v -2 h -2 v 2 h -2 v -2 h -2 v 2.16 a 1.7,1.7 0 0 0 -0.85,0.84 H 27.5 v 2 h 2 v 2 h -2 v 2 h 2 v 2 h -2 v 2 h 2 v 2 h -2 v 2 h 2.15 a 1.68,1.68 0 0 0 0.85,0.85 v 2.15 h 2 v -2 h 2 v 2 h 2 v -2 h 2 v 2 h 2 v -2 h 2 v 2 h 2 v -2.15 a 1.68,1.68 0 0 0 0.85,-0.85 h 2.15 v -2 h -2 v -2 h 2 v -2 h -2 v -2 h 2 v -2 h -2 v -2 h 2 v -2 H 45.35 A 1.7,1.7 0 0 0 44.5,29.65 Z m -1,13.84 h -12 v -12 h 12 z"/><path style="fill:#fff" id="path4100" d="m 18.77,30.49 -1.41,1.42 4.64,4.58 h -9.5 v 2 h 9.59 l -4.73,4.73 1.41,1.41 6.37,-6.36 a 1,1 0 0 0 0.29,-0.71 1,1 0 0 0 -0.29,-0.7 z"/><path style="fill:#fff" id="path4102" d="m 62.5,36.49 h -9.45 l 4.59,-4.58 -1.41,-1.42 -6.37,6.37 a 1,1 0 0 0 -0.29,0.7 1,1 0 0 0 0.29,0.71 l 6.37,6.36 1.41,-1.41 -4.73,-4.73 h 9.59 z"/></g></svg>