<svg xmlns="http://www.w3.org/2000/svg" xmlns:svg="http://www.w3.org/2000/svg" id="Product_Icon" width="75" height="75" data-name="Product Icon" version="1.1" viewBox="0 0 75 75"><metadata id="metadata19"/><title id="title2">AWS-CodeBuild_light-bg</title><rect id="Blue_Light_BG" width="75" height="75" x="0" y="0" data-name="Blue Light BG" style="fill:#3b48cc"/><g id="Product_Icon-2" data-name="Product Icon"><path style="fill:#fff" id="path5" d="M 42.92,48.25 44.31,46.82 41.45,44 44.65,41.61 43.45,40 39.31,43.1 a 1,1 0 0 0 -0.1,1.52 z"/><path style="fill:#fff" id="path7" d="m 54.05,44.85 -3.2,2.4 1.2,1.6 4.14,-3.1 a 1,1 0 0 0 0.4,-0.74 1,1 0 0 0 -0.3,-0.78 l -3.71,-3.6 -1.39,1.43 z"/><rect style="fill:#fff" id="rect9" width="13.11" height="2" x="41.16" y="44" transform="rotate(-66.25,47.715165,44.998933)"/><path style="fill:#fff" id="path11" d="m 63.39,20.73 -2.8,-2.32 -4.44,-3.68 v 0 l -1.17,-1 A 1,1 0 0 0 54.34,13.5 H 17.26 v 0 a 1,1 0 0 0 -1,-1 h -4 a 1,1 0 0 0 -1,1 v 10 a 1,1 0 0 0 1,1 h 4 v 37 a 1,1 0 0 0 1,1 h 11 a 1,1 0 0 0 1,-1 v -39 h 18 v 7.33 L 36.05,34.5 h -0.8 a 1,1 0 0 0 -1,1 v 18 a 1,1 0 0 0 1,1 h 26 a 1,1 0 0 0 1,-1 v -18 a 1,1 0 0 0 -1,-1 h -0.8 L 49.25,29.83 V 22.5 h 13.5 a 1,1 0 0 0 0.94,-0.66 1,1 0 0 0 -0.3,-1.11 z M 54,15.54 48.84,20.2 42.66,15.52 H 54 Z m -25.73,5 h -8 l 4.94,-3.75 4.89,3.71 z M 18.76,41 27.25,33.47 v 15.06 z m 8,9.75 -8.49,7.53 V 43.22 Z m -8.49,-12 V 23.72 l 8.49,7.53 z m 8.58,-23.27 h 12.47 l -6.24,4.74 z M 41,16.75 45.94,20.5 H 36.05 Z M 23.5,15.5 17.25,20.25 V 15.5 Z m -8.25,7 h -2 v -8 h 2 z m 3.51,38 8.49,-7.5 v 7.5 z M 27.25,29 19.89,22.5 h 7.36 z m 33,23.47 h -24 v -16 h 24 z m -19,-18 7,-2.92 7,2.92 z m 10.24,-14 4,-3.68 4.51,3.71 z"/></g></svg>