<svg xmlns="http://www.w3.org/2000/svg" xmlns:svg="http://www.w3.org/2000/svg" id="Product_Icon" width="75" height="75" data-name="Product Icon" version="1.1" viewBox="0 0 75 75"><metadata id="metadata23"/><title id="title2">AWS-CodeCommit_light-bg</title><rect id="Blue_Light_BG" width="75" height="75" x="0" y="0" data-name="Blue Light BG" style="fill:#3b48cc"/><g id="Product_Icon-2" data-name="Product Icon"><path style="fill:#fff" id="path5" d="m 34.5,27.43 a 5,5 0 0 0 -1,9.9 v 6.59 a 2.42,2.42 0 0 1 -1.63,2.22 L 22.8,49.7 a 5.19,5.19 0 0 0 -3,3.06 4.72,4.72 0 0 0 -1.29,-0.46 v -7.78 a 5,5 0 0 0 0,-9.8 V 22.46 a 5,5 0 1 0 -2,0 v 12.26 a 5,5 0 0 0 0,9.8 v 7.78 a 5,5 0 1 0 5,1.92 3,3 0 0 1 2,-2.65 L 32.6,48 a 4.43,4.43 0 0 0 2.9,-4.09 v -6.58 a 5,5 0 0 0 -1,-9.9 z m -20,-9.86 a 3,3 0 1 1 3,3 3,3 0 0 1 -3,-3 z m 0,22 a 3,3 0 1 1 3,3 3,3 0 0 1 -3,-2.95 z m 3,20.58 a 3,3 0 1 1 3,-3 3,3 0 0 1 -3,3.05 z m 17,-24.77 a 3,3 0 1 1 3,-3 3,3 0 0 1 -3,3.05 z"/><path style="fill:#fff" id="path7" d="m 61.5,62.43 h -27 a 1,1 0 0 1 -1,-1 v -11 h 2 v 10 h 25 v -36 h -25 v -2 h 26 a 1,1 0 0 1 1,1 v 38 a 1,1 0 0 1 -1,1 z"/><path style="fill:#fff" id="path9" d="M 43.32,46.9 39.3,43 A 1,1 0 0 1 39,42.22 1,1 0 0 1 39.4,41.49 l 4.49,-3.36 1.2,1.6 -3.55,2.66 3.17,3.09 z"/><path style="fill:#fff" id="path11" d="m 53.11,47.54 -1.2,-1.6 3.55,-2.66 -3.17,-3.09 1.39,-1.44 4,3.91 a 1,1 0 0 1 -0.1,1.52 z"/><rect style="fill:#fff" id="rect13" width="14.22" height="2" x="41.35" y="42.43" transform="rotate(-66.28,48.46077,43.435956)"/><path style="fill:#fff" id="path15" d="m 31.21,25.72 -0.71,0.71 -0.71,0.71 -4.29,-4.29 v 3.58 h -2 v -6 a 1,1 0 0 1 1,-1 h 6 v 2 h -3.58 z"/></g></svg>