<svg xmlns="http://www.w3.org/2000/svg" xmlns:svg="http://www.w3.org/2000/svg" id="Product_Icon" width="75" height="75" data-name="Product Icon" version="1.1"><metadata id="metadata3809"/><title id="title3794">Amazon-EC2_iight-bg</title><rect id="Orange_Light_BG" width="75" height="75" x="0" y="0" data-name="Orange Light BG" style="fill:#d86613"/><g id="Product_Icon-2" data-name="Product Icon"><path style="fill:#fff" id="path3797" d="m 60.49,40.5 h -5 v -2 h 5 v -24 h -24 v 5 h -2 v -5 a 2,2 0 0 1 2,-2 h 24 a 2,2 0 0 1 2,2 v 24 a 2,2 0 0 1 -2,2 z"/><path style="fill:#fff" id="path3799" d="m 38.49,62.5 h -24 a 2,2 0 0 1 -2,-2 v -24 a 2,2 0 0 1 2,-2 h 5 v 2 h -5 v 24 h 24 v -5 h 2 v 5 a 2,2 0 0 1 -2,2 z"/><path style="fill:#fff" id="path3801" d="m 53.5,28.5 v -2 h -3 a 2.18,2.18 0 0 0 -2,-2 v -3 h -2 v 3 h -3 v -3 h -2 v 3 h -3 v -3 h -2 v 3 h -3 v -3 h -2 v 3 h -3 v -3 h -2 v 3 a 2.18,2.18 0 0 0 -2,2 h -3 v 2 h 3 v 3 h -3 v 2 h 3 v 3 h -3 v 2 h 3 v 3 h -3 v 2 h 3 v 3 h -3 v 2 h 3 a 2.18,2.18 0 0 0 2,2 v 3 h 2 v -3 h 3 v 3 h 2 v -3 h 3 v 3 h 2 v -3 h 3 v 3 h 2 v -3 h 3 v 3 h 2 v -3 a 2.18,2.18 0 0 0 2,-2 h 3 v -2 h -3 v -3 h 3 v -2 h -3 v -3 h 3 v -2 h -3 v -3 h 3 v -2 h -3 v -3 z m -5,19.82 A 0.18,0.18 0 0 1 48.32,48.5 H 26.68 A 0.18,0.18 0 0 1 26.5,48.32 V 26.68 a 0.18,0.18 0 0 1 0.18,-0.18 h 21.64 a 0.18,0.18 0 0 1 0.18,0.18 z"/></g></svg>