<svg xmlns="http://www.w3.org/2000/svg" xmlns:svg="http://www.w3.org/2000/svg" id="Product_Icon" width="75" height="75" data-name="Product Icon" version="1.1" viewBox="0 0 75 75"><metadata id="metadata15"/><title id="title2">Amazon-Elastic-Container-Service_light-bg</title><rect id="Orange_Light_BG" width="75" height="75" x="0" y="0" data-name="Orange Light BG" style="fill:#d86613"/><g id="Product_Icon-2" data-name="Product Icon"><path style="fill:#fff" id="path5" d="M 37.29,64.44 A 1,1 0 0 1 36.76,64.3 L 14,51.18 A 1.06,1.06 0 0 1 13.47,50.26 V 23.68 A 1.06,1.06 0 0 1 14,22.76 L 34.93,10.7 a 1,1 0 0 1 1.57,0.9 V 23.11 A 1.05,1.05 0 0 1 36,24 l -10.47,6 v 13.94 l 11.79,6.81 10.31,-6 a 1,1 0 0 1 1,0 l 9.92,5.7 a 1.06,1.06 0 0 1 0.53,0.92 1,1 0 0 1 -0.53,0.91 l -20.75,12 a 1,1 0 0 1 -0.51,0.16 z M 15.5,49.54 37.83,62.43 57,51.35 49,46.74 38.37,52.88 a 1.11,1.11 0 0 1 -1.09,0 L 24,45.22 A 1.05,1.05 0 0 1 23.47,44.31 V 29.46 A 1,1 0 0 1 24,28.55 l 10.47,-6 v -9.18 l -19,11 z"/><path style="fill:#fff" id="path7" d="M 60.44,49 A 1.13,1.13 0 0 1 59.91,48.86 L 50,43.13 A 1,1 0 0 1 49.47,42.22 V 30.11 L 39,24.07 A 1.05,1.05 0 0 1 38.47,23.16 V 11.65 a 1,1 0 0 1 0.52,-0.9 1,1 0 0 1 1,0 L 61,22.82 a 1.05,1.05 0 0 1 0.53,0.91 V 47.9 A 1.06,1.06 0 0 1 61,48.82 1.1,1.1 0 0 1 60.44,49 Z m -8.94,-7.45 8,4.6 V 24.4 l -19,-11 v 9.13 L 51,28.61 a 1,1 0 0 1 0.53,0.91 z"/></g></svg>