<svg xmlns="http://www.w3.org/2000/svg" xmlns:svg="http://www.w3.org/2000/svg" id="Product_Icon" width="75" height="75" data-name="Product Icon" version="1.1" viewBox="0 0 75 75"><metadata id="metadata25"/><title id="title2">Amazon-Elasticsearch-Service</title><rect id="Purple_Light_BG" width="75" height="75" x="0" y="0" data-name="Purple Light BG" style="fill:#693cc5"/><g id="Product_Icon-2" data-name="Product Icon"><path style="fill:#fff" id="path5" d="m 22.5,27.25 h -9 a 1,1 0 0 0 -1,1 v 32 a 1,1 0 0 0 1,1 h 9 a 1,1 0 0 0 1,-1 v -32 a 1,1 0 0 0 -1,-1 z m -1,32 h -7 v -30 h 7 z"/><path style="fill:#fff" id="path7" d="m 36.5,54.67 v 5.58 a 1,1 0 0 1 -1,1 h -9 a 1,1 0 0 1 -1,-1 V 43 a 14.74,14.74 0 0 0 2,5.24 v 11 h 7 V 54 a 13.55,13.55 0 0 0 2,0.67 z"/><path style="fill:#fff" id="path9" d="m 36.5,22.25 v 3.54 a 13.55,13.55 0 0 0 -2,0.71 v -3.25 h -7 v 9 a 14.74,14.74 0 0 0 -2,5.24 V 22.25 a 1,1 0 0 1 1,-1 h 9 a 1,1 0 0 1 1,1 z"/><path style="fill:#fff" id="path11" d="m 47.5,55.47 v 3.78 h -7 v -4 0 a 14.71,14.71 0 0 1 -2,-0.13 v 5.13 a 1,1 0 0 0 1,1 h 9 a 1,1 0 0 0 1,-1 v -2.78 z m 1,-42.22 h -9 a 1,1 0 0 0 -1,1 v 11.13 a 14.42,14.42 0 0 1 2,-0.13 v 0 -10 h 7 V 27 a 14.44,14.44 0 0 1 2,1.28 v -14 a 1,1 0 0 0 -1,-1.03 z"/><path style="fill:#fff" id="path13" d="m 61.5,18.25 h -9 a 1,1 0 0 0 -1,1 v 10.84 a 14.58,14.58 0 0 1 2,2.74 V 20.25 h 7 V 51 l 2,2 V 19.25 a 1,1 0 0 0 -1,-1 z"/><path style="fill:#fff" id="path15" d="m 61.29,54.65 -9,-9 a 13,13 0 1 0 -5.74,6.07 l 8.85,8.84 a 4.1613249,4.1613249 0 0 0 5.89,-5.88 z M 29.5,40.23 a 11,11 0 1 1 11,11 11,11 0 0 1 -11,-11 z m 30.37,18.89 a 2.17,2.17 0 0 1 -3.06,0 L 48.29,50.6 a 13.21,13.21 0 0 0 3,-3.17 l 8.6,8.64 a 2.16,2.16 0 0 1 -0.02,3.05 z"/><path style="fill:#fff" id="path17" d="m 36.07,45 a 6.46,6.46 0 1 1 7.69,-10.38 l -1.19,1.61 a 4.4610817,4.4610817 0 1 0 -5.31,7.17 z"/></g></svg>