<svg xmlns="http://www.w3.org/2000/svg" xmlns:svg="http://www.w3.org/2000/svg" id="Product_Icon" width="75" height="75" data-name="Product Icon" version="1.1" viewBox="0 0 75 75"><metadata id="metadata4176"/><title id="title4165">Elastic-Load-Balancing-ELB_light-bg</title><rect id="Orange_Light_BG" width="75" height="75" x="0" y="0" data-name="Orange Light BG" style="fill:#d86613"/><g id="Product_Icon-2" data-name="Product Icon"><path style="fill:#fff" id="path4168" d="m 49.54,38.5 a 6.22,6.22 0 1 0 0,-2 h -7.46 a 14.11,14.11 0 0 0 -1.4,-5.3 l 9,-7.61 a 6.22,6.22 0 1 0 -2.36,-4.87 6.08,6.08 0 0 0 1,3.4 l -8.7,7.33 a 14.5,14.5 0 1 0 0,16.1 l 8.7,7.33 a 6.08,6.08 0 0 0 -1,3.4 6.21,6.21 0 1 0 2.36,-4.87 l -9,-7.61 a 14.11,14.11 0 0 0 1.4,-5.3 z m 6.12,-5.22 a 4.22,4.22 0 1 1 -4.21,4.22 4.22,4.22 0 0 1 4.21,-4.22 z M 53.58,14.5 a 4.22,4.22 0 1 1 -4.22,4.22 4.22,4.22 0 0 1 4.22,-4.22 z m 0,37.57 a 4.22,4.22 0 1 1 -4.22,4.21 4.22,4.22 0 0 1 4.22,-4.21 z M 27.62,50 A 12.5,12.5 0 1 1 40.12,37.5 12.52,12.52 0 0 1 27.62,50 Z"/></g></svg>