<svg xmlns="http://www.w3.org/2000/svg" xmlns:svg="http://www.w3.org/2000/svg" xmlns:xlink="http://www.w3.org/1999/xlink" id="svg84" width="44.109" height="26.414" preserveAspectRatio="xMidYMid meet" version="1.1" viewBox="0 0 564.6 338.103"><metadata id="metadata88"/><defs id="defs70"><path id="f3Yqa0HIea" d="m 170.99,346.7 v -22.65 c 184.61,0 278.91,0 282.9,0 57.25,0 85.03,-24 85.03,-73.25 0,-42.12 -26.23,-68.5 -77.97,-78.46 -5.32,-1.02 -9.25,-5.3 -9.58,-10.42 -2.51,-40.87 -27.66,-55.48 -47.91,-55.48 -14.18,0.13 -27.48,6.55 -35.93,17.32 -4.03,4.96 -11.55,5.89 -16.79,2.08 -1.78,-1.29 -3.14,-3.03 -3.93,-5.02 C 339.52,101.09 327.56,83.2 311.84,68.51 274.9,33.46 219.08,23.28 170.99,42.81 c -43.55,18.85 -72.17,59.26 -74.02,104.5 0.03,4.62 0.35,9.24 0.96,13.82 0.79,5.7 -3.07,11.06 -8.98,12.45 -23.95,5.66 -65.04,22.65 -65.04,76.09 0,1.92 0,3.62 0,5.43 2.4,39.97 38.09,68.73 84.92,68.73 3.99,0 24.95,0.07 62.89,0.22 v 22.42 c -37.94,0 -58.9,0 -62.89,0 -59.88,0 -105.64,-37.7 -108.75,-89.67 0,-2.72 0,-4.87 0,-7.13 -1.85,-43.99 28.47,-83.42 73.3,-95.34 0,-2.37 0,-4.86 0,-7.24 C 75.14,69.5 143.1,7.96 225.17,9.63 c 38.94,0.79 76,15.99 103.2,42.35 14.06,13.02 25.46,28.37 33.65,45.29 11.85,-8.63 26.37,-13.33 41.32,-13.36 31.74,0 65.04,21.17 71.87,67.93 57.01,13.7 88.39,48.46 88.39,98.85 -0.72,61.93 -39.41,96.01 -109.71,96.01 -7.99,0 -102.29,0 -282.9,0 z"/></defs><g id="g82" transform="translate(0.50020531,-9.0968086)"><g id="g80"><g id="g78"><use id="use72" width="100%" height="100%" x="0" y="0" xlink:href="#f3Yqa0HIea" style="opacity:1;fill:#232f3e;fill-opacity:1"/><g id="g76"><use id="use74" width="100%" height="100%" x="0" y="0" xlink:href="#f3Yqa0HIea" style="opacity:1;fill-opacity:0;stroke:#000;stroke-width:1;stroke-opacity:0"/></g></g></g></g><path style="fill:#e6e6e6;stroke-width:.07575758" id="path3781" d="M 7.273927,24.463532 C 5.626607,24.228401 3.9102535,23.275593 3.0338501,22.109719 2.5873116,21.515692 2.3761314,21.102609 2.1487041,20.378311 1.9064449,19.606777 1.9043235,17.994928 2.1444038,17.110971 2.6875719,15.111068 4.152223,13.739553 6.5089241,13.023989 7.4587351,12.735598 7.7846731,12.439753 7.6972835,11.945346 7.6381119,11.610584 7.7070038,9.988029 7.8010819,9.5006684 8.3398013,6.7098912 10.267881,4.2222243 12.901879,2.919464 c 1.415704,-0.7001992 2.70975,-0.9822967 4.485684,-0.9778635 1.441357,0.0036 2.344123,0.158827 3.557324,0.6116753 0.921951,0.3441343 1.243152,0.5082719 2.10926,1.0778592 1.633302,1.0741234 3.081442,2.8302336 3.877964,4.7026742 0.322315,0.7576891 0.579482,0.9858062 1.111344,0.9858062 0.30429,0 0.375927,-0.042163 0.904775,-0.5325171 0.315877,-0.2928843 0.741103,-0.617032 0.944948,-0.7203281 1.477017,-0.7484612 3.1248,-0.4561481 4.20571,0.746084 0.60445,0.6722938 0.958522,1.5288908 1.128802,2.7308838 0.14747,1.040974 0.17955,1.071118 1.494786,1.404574 1.770126,0.448785 2.913777,1.035053 3.854805,1.976081 1.031776,1.031776 1.508263,2.30731 1.506257,4.03218 -0.0032,2.729569 -1.196236,4.495428 -3.51737,5.20609 -1.29242,0.395701 -0.794254,0.384297 -16.367999,0.374683 -7.958333,-0.0049 -14.674242,-0.03813 -14.924242,-0.07381 z" transform="scale(12.8)"/></svg>