<svg xmlns="http://www.w3.org/2000/svg" xmlns:svg="http://www.w3.org/2000/svg" id="Product_Icon" width="75" height="75" data-name="Product Icon" version="1.1" viewBox="0 0 75 75"><metadata id="metadata21"/><title id="title2">Amazon-Kinesis_light-bg</title><rect id="Purple_Light_BG" width="75" height="75" x="0" y="0" data-name="Purple Light BG" style="fill:#693cc5"/><g id="Product_Icon-2" data-name="Product Icon"><path style="fill:#fff" id="path5" d="m 62.53,32.5 v 2 H 53.71 C 30.62,34.5 12.53,25.4 12.53,13.76 a 8.88,8.88 0 0 1 0.08,-1.26 h 2 a 7.64,7.64 0 0 0 -0.1,1.26 c 0,10.33 17.58,18.74 39.2,18.74 z"/><path style="fill:#fff" id="path7" d="m 62.53,36.5 v 2 H 50.29 c -19.57,0 -33.64,3.17 -37.76,8.49 V 44.31 C 16.9,40.49 25,38.51 32.91,37.5 v 0 c -7.93,-1 -16,-3 -20.39,-6.73 v -2.92 c 4.07,5.34 17.87,8.55 37.1,8.65 z"/><path style="fill:#fff" id="path9" d="m 62.53,28.49 v 2 h -4.14 c -20.08,0 -34.65,-6.8 -34.65,-16.17 0,0 0,-1.15 0,-1.83 h 2.11 c 0,0.48 0,1.47 0,1.83 0,8 14,14.17 32.55,14.17 z"/><path style="fill:#fff" id="path11" d="m 62.53,40.5 v 2 h -8.82 c -21.63,0 -39.22,8.44 -39.22,18.77 a 8.38,8.38 0 0 0 0.09,1.23 h -2 A 8.38,8.38 0 0 1 12.5,61.27 C 12.5,49.62 30.61,40.5 53.73,40.5 Z"/><path style="fill:#fff" id="path13" d="m 62.53,44.5 v 2 h -4.14 c -18.58,0 -32.59,6 -32.59,14.07 0,0.39 0,1.52 0,1.93 h -2 c 0,-0.66 0,-1.91 0,-1.93 0,-9.32 14.56,-16.07 34.61,-16.07 z"/></g></svg>