<svg xmlns="http://www.w3.org/2000/svg" xmlns:svg="http://www.w3.org/2000/svg" id="Product_Icon" width="75" height="75" data-name="Product Icon" version="1.1" viewBox="0 0 75 75"><metadata id="metadata25"/><title id="title2">AWS-Key-Management-Service_light-bg</title><rect id="Red_Light_BG" width="75" height="75" x="0" y="0" data-name="Red Light BG" style="fill:#d6242d"/><g id="Product_Icon-2" data-name="Product Icon"><path style="fill:#fff" id="path5" d="m 24.5,62 a 1,1 0 0 1 -0.75,-0.34 l -3.5,-4 A 1,1 0 0 1 20,57 v -2.58 l -2.71,-2.71 a 1,1 0 0 1 0,-1.42 L 20,47.59 v -1.17 l -2.71,-2.71 a 1,1 0 0 1 0,-1.42 L 20,39.59 V 37.17 A 12.45,12.45 0 0 1 12,25.35 12.500225,12.500225 0 0 1 37,25.5 12.43,12.43 0 0 1 29,37.16 V 58 a 1,1 0 0 1 -0.35,0.76 l -3.5,3 A 1,1 0 0 1 24.5,62 Z m -2.5,-5.38 2.6,3 2.4,-2.08 V 36.45 a 1,1 0 0 1 0.7,-1 10.49,10.49 0 1 0 -6.43,0 1,1 0 0 1 0.73,1 V 40 a 1,1 0 0 1 -0.29,0.71 L 19.42,43 21.71,45.29 A 1,1 0 0 1 22,46 v 2 a 1,1 0 0 1 -0.29,0.7 l -2.29,2.3 2.29,2.29 A 1,1 0 0 1 22,54 Z M 24.5,26.5 A 4.5,4.5 0 1 1 29,22 4.51,4.51 0 0 1 24.5,26.5 Z m 0,-7 A 2.5,2.5 0 1 0 27,22 2.5,2.5 0 0 0 24.5,19.5 Z"/><path style="fill:#fff" id="path7" d="M 61.09,55 H 31 V 53 H 61 V 31 H 39 V 29 H 61.09 A 1.9,1.9 0 0 1 63,30.87 V 53.13 A 1.9,1.9 0 0 1 61.09,55 Z"/><path style="fill:#fff" id="path9" d="m 34.5,45.5 a 4,4 0 1 1 4,-4 4,4 0 0 1 -4,4 z m 0,-6 a 2,2 0 1 0 2,2 2,2 0 0 0 -2,-2 z"/><path style="fill:#fff" id="path11" d="m 44.5,45.5 a 4,4 0 1 1 4,-4 4,4 0 0 1 -4,4 z m 0,-6 a 2,2 0 1 0 2,2 2,2 0 0 0 -2,-2 z"/><rect style="fill:#fff" id="rect13" width="7" height="2" x="31" y="48"/><rect style="fill:#fff" id="rect15" width="7" height="2" x="41" y="48"/><rect style="fill:#fff" id="rect17" width="7" height="2" x="51" y="48"/></g></svg>