<svg xmlns="http://www.w3.org/2000/svg" xmlns:svg="http://www.w3.org/2000/svg" id="Product_Icon" width="75" height="75" data-name="Product Icon" version="1.1" viewBox="0 0 75 75"><metadata id="metadata15"/><title id="title2">AWS-Lambda_light-bg</title><rect id="Orange_Light_BG" width="75" height="75" x="0" y="0" data-name="Orange Light BG" style="fill:#d86613"/><g id="Product_Icon-2" data-name="Product Icon"><path style="fill:#fff" id="path5" d="M 60.5,62.5 H 48.18 a 1,1 0 0 1 -0.9,-0.57 L 29.86,25.5 h -7.37 a 1,1 0 0 1 -1,-1 v -11 a 1,1 0 0 1 1,-1 h 15.4 a 1,1 0 0 1 0.9,0.57 L 56.13,49.5 h 4.37 a 1,1 0 0 1 1,1 v 11 a 1,1 0 0 1 -1,1 z m -11.69,-2 H 59.5 v -9 h -4 A 1,1 0 0 1 54.6,50.93 L 37.26,14.5 H 23.5 v 9 h 7 a 1,1 0 0 1 0.9,0.57 z"/><path style="fill:#fff" id="path7" d="m 27.48,62.5 h -13 a 1,1 0 0 1 -0.85,-0.47 1,1 0 0 1 -0.05,-1 l 13.6,-28.41 a 1,1 0 0 1 0.9,-0.57 v 0 a 1,1 0 0 1 0.9,0.56 L 35.49,46 a 1,1 0 0 1 0,0.87 l -7.1,15 a 1,1 0 0 1 -0.91,0.63 z m -11.4,-2 h 10.77 l 6.63,-14 -5.39,-11.15 z"/></g></svg>