<svg xmlns="http://www.w3.org/2000/svg" xmlns:svg="http://www.w3.org/2000/svg" id="Product_Icon" width="75" height="75" data-name="Product Icon" version="1.1" viewBox="0 0 75 75"><metadata id="metadata4257"/><title id="title4234">Amazon-RDS_light-bg</title><rect id="Blue_Light_BG" width="75" height="75" x="0" y="0" data-name="Blue Light BG" style="fill:#3b48cc"/><g id="Product_Icon-2" data-name="Product Icon"><path style="fill:#fff" id="path4237" d="m 48.45,28.23 c 0,-2.9 -5.69,-4.24 -11,-4.24 -5.31,0 -11,1.34 -11,4.24 a 1.49,1.49 0 0 0 0.05,0.43 v 18.05 c -0.05,3 5.65,4.28 11,4.28 5.35,0 11,-1.32 11,-4.22 V 28.23 Z M 37.47,26 c 5.83,0 9,1.59 9,2.24 0,0.65 -3.15,2.24 -9,2.24 -5.85,0 -9,-1.58 -9,-2.24 0,-0.66 3.17,-2.24 9,-2.24 z m 9,20.78 c 0,0.64 -3.16,2.22 -9,2.22 -5.84,0 -9,-1.58 -9,-2.22 v -3.16 c 2.11,1.15 5.65,1.7 9,1.7 3.35,0 6.86,-0.54 9,-1.67 z m 0,-5.69 c 0,0.64 -3.15,2.24 -9,2.24 -5.85,0 -9,-1.6 -9,-2.24 h 0.03 v -3.82 c 2.11,1.14 5.65,1.69 9,1.69 3.35,0 6.86,-0.54 9,-1.67 z m 0,-6.37 c 0,0.65 -3.15,2.25 -9,2.25 -5.85,0 -9,-1.6 -9,-2.25 h 0.03 v -3.9 c 2.13,1.13 5.63,1.65 9,1.65 3.37,0 6.91,-0.54 9,-1.69 z"/><path style="fill:#fff" id="path4239" d="m 15.91,60.51 h 6.59 v 2 h -9 a 1,1 0 0 1 -1,-1 v -9 h 2 v 6.57 L 22,51.59 23.4,53 Z"/><path style="fill:#fff" id="path4241" d="m 62.5,52.51 v 9 a 1,1 0 0 1 -1,1 h -9 v -2 h 6.59 l -7.39,-7.41 1.41,-1.4 7.39,7.38 v -6.57 z"/><path style="fill:#fff" id="path4243" d="m 62.5,13.51 v 9 h -2 v -6.6 L 53.11,23.3 51.7,21.89 59.08,14.51 H 52.5 v -2 h 9 a 1,1 0 0 1 1,1 z"/><path style="fill:#fff" id="path4245" d="M 23.4,22 22,23.4 14.5,15.91 v 6.58 h -2 v -9 a 1,1 0 0 1 1,-1 h 9 v 2 h -6.59 z"/><path style="fill:#fff" id="path4247" d="m 22.16,46.46 c -6.11,-2.2 -9.61,-5.56 -9.61,-9.21 0,-3.65 3.5,-7 9.61,-9.21 l 0.68,1.88 c -5.19,1.87 -8.29,4.61 -8.29,7.33 0,2.72 3.1,5.46 8.29,7.33 z"/><path style="fill:#fff" id="path4249" d="m 52.28,46.68 -0.64,-1.9 c 5.55,-1.87 8.86,-4.69 8.86,-7.53 0,-2.84 -3.31,-5.66 -8.86,-7.54 l 0.64,-1.89 c 6.49,2.18 10.22,5.64 10.22,9.43 0,3.79 -3.73,7.23 -10.22,9.43 z"/></g></svg>