<svg xmlns="http://www.w3.org/2000/svg" xmlns:svg="http://www.w3.org/2000/svg" id="Product_Icon" width="75" height="75" data-name="Product Icon" version="1.1" viewBox="0 0 75 75"><metadata id="metadata31"/><title id="title2">Amazon-Redshift_light-bg</title><rect id="Purple_Light_BG" width="75" height="75" x="0" y="0" data-name="Purple Light BG" style="fill:#693cc5"/><g id="Product_Icon-2" data-name="Product Icon"><path style="fill:#fff" id="path5" d="m 37.5,62.5 c -8.24,0 -17,-2.39 -17,-6.82 V 19.32 h 2 v 36.36 c 0,2 5.71,4.82 15,4.82 9.29,0 15,-2.8 15,-4.82 V 19.32 h 2 v 36.36 c 0,4.43 -8.76,6.82 -17,6.82 z"/><path style="fill:#fff" id="path7" d="m 37.5,62.5 c -8.24,0 -17,-2.39 -17,-6.82 V 19.32 h 2 v 36.36 c 0,2 5.71,4.82 15,4.82 9.29,0 15,-2.8 15,-4.82 V 19.32 h 2 v 36.36 c 0,4.43 -8.76,6.82 -17,6.82 z"/><path style="fill:#fff" id="path9" d="m 37.5,26.13 c -8.24,0 -17,-2.39 -17,-6.81 0,-4.42 8.76,-6.82 17,-6.82 8.24,0 17,2.39 17,6.82 0,4.43 -8.76,6.81 -17,6.81 z m 0,-11.63 c -9.29,0 -15,2.8 -15,4.82 0,2.02 5.71,4.81 15,4.81 9.29,0 15,-2.8 15,-4.81 0,-2.01 -5.71,-4.82 -15,-4.82 z"/><rect style="fill:#fff" id="rect11" width="2" height="6.22" x="36.48" y="38.02" transform="rotate(-77.19,37.473236,41.128377)"/><rect style="fill:#fff" id="rect13" width="6.3" height="2" x="42.05" y="35.78" transform="rotate(-68.46,45.198645,36.782787)"/><rect style="fill:#fff" id="rect15" width="5.2" height="2" x="27.4" y="43.59" transform="rotate(-66.89,30.00251,44.584356)"/><path style="fill:#fff" id="path17" d="m 28,52.77 a 3.5,3.5 0 1 1 3.5,-3.5 3.5,3.5 0 0 1 -3.5,3.5 z m 0,-5 a 1.5,1.5 0 1 0 1.5,1.5 1.5,1.5 0 0 0 -1.5,-1.5 z"/><path style="fill:#fff" id="path19" d="m 32,43.39 a 3.5,3.5 0 1 1 3.5,-3.5 3.5,3.5 0 0 1 -3.5,3.5 z m 0,-5 a 1.5,1.5 0 1 0 1.5,1.5 v 0 A 1.5,1.5 0 0 0 32,38.39 Z"/><path style="fill:#fff" id="path21" d="M 43,45.5 A 3.5,3.5 0 1 1 46.5,42 3.5,3.5 0 0 1 43,45.5 Z m 0,-5 A 1.5,1.5 0 1 0 44.5,42 1.5,1.5 0 0 0 43,40.5 Z"/><path style="fill:#fff" id="path23" d="m 47,35 a 3.5,3.5 0 1 1 3.5,-3.5 v 0.05 A 3.51,3.51 0 0 1 47,35 Z m 0,-5 A 1.5,1.5 0 1 0 48.5,31.55 1.5,1.5 0 0 0 47,30 Z"/></g></svg>