<svg xmlns="http://www.w3.org/2000/svg" xmlns:svg="http://www.w3.org/2000/svg" id="Product_Icon" width="75" height="75" data-name="Product Icon" version="1.1" viewBox="0 0 75 75"><metadata id="metadata31"/><title id="title2">AWS-Secrets-Manager_light-bg</title><rect id="Red_Light_BG" width="75" height="75" x="0" y="0" data-name="Red Light BG" style="fill:#d6242d"/><g id="Product_Icon-2" data-name="Product Icon"><rect style="fill:#fff" id="rect5" width="2" height="16.91" x="54.52" y="47.08" transform="rotate(-45,55.52564,55.540527)"/><rect style="fill:#fff" id="rect7" width="2" height="18.74" x="19.13" y="10.77" transform="rotate(-45,20.12406,20.144342)"/><rect style="fill:#fff" id="rect9" width="9.9" height="2" x="15.05" y="54.05" transform="rotate(-45,20.004122,55.054021)"/><rect style="fill:#fff" id="rect11" width="9.9" height="2" x="50.05" y="19.05" transform="rotate(-45,54.9951,20.050284)"/><path style="fill:#fff" id="path13" d="M 60.46,36.52 A 22.87,22.87 0 0 0 56.15,24.08 l -1.62,1.18 a 20.86,20.86 0 0 1 3.93,11.26 h -2 v 2 h 2 A 20.7,20.7 0 0 1 54.53,49.84 L 56.15,51 a 22.72,22.72 0 0 0 4.31,-12.5 h 2 v -2 z"/><path style="fill:#fff" id="path15" d="M 25.21,20.52 A 20.77,20.77 0 0 1 36.5,16.59 v 1.93 h 2 v -1.93 a 20.77,20.77 0 0 1 11.29,3.93 L 51,18.9 A 22.81,22.81 0 0 0 38.5,14.59 v -2.07 h -2 v 2.07 A 22.81,22.81 0 0 0 24,18.9 Z"/><path style="fill:#fff" id="path17" d="M 49.79,54.58 A 20.77,20.77 0 0 1 38.5,58.51 v -2 h -2 v 2 A 20.77,20.77 0 0 1 25.21,54.58 L 24,56.2 a 22.81,22.81 0 0 0 12.5,4.31 v 2 h 2 v -2 A 22.81,22.81 0 0 0 51,56.2 Z"/><path style="fill:#fff" id="path19" d="m 18.85,51 1.62,-1.18 A 20.7,20.7 0 0 1 16.54,38.5 h 2 v -2 h -2 A 20.86,20.86 0 0 1 20.47,25.24 L 18.85,24.06 A 22.87,22.87 0 0 0 14.54,36.5 h -2 v 2 h 2 A 22.72,22.72 0 0 0 18.85,51 Z"/><path style="fill:#fff" id="path21" d="M 42.39,24.25 A 7.5,7.5 0 0 0 37.5,22.52 v 0 c -3.86,0 -7,2.73 -7,6.09 v 4.91 h -2 a 1,1 0 0 0 -1,1 v 14 a 1,1 0 0 0 0.29,0.71 1,1 0 0 0 0.71,0.29 h 18 a 1,1 0 0 0 1,-1 v -14 a 1,1 0 0 0 -0.29,-0.7 1,1 0 0 0 -0.71,-0.3 h -2 v -4.9 a 5.71,5.71 0 0 0 -2.11,-4.37 z m -9.89,4.36 c 0,-2.26 2.25,-4.09 5,-4.09 v 0 a 5.55,5.55 0 0 1 3.6,1.25 3.76,3.76 0 0 1 1.41,2.85 v 4.9 h -10 z m 13,9.91 h -3 v 2 h 3 v 2 h -3 v 2 h 3 v 3 h -16 v -12 h 16 z"/><path style="fill:#fff" id="path23" d="m 36.5,42.76 v 2.76 h 2 v -2.76 a 2.93,2.93 0 1 0 -2,0 z m 1,-3.82 A 1.08,1.08 0 1 1 36.43,40 1.07,1.07 0 0 1 37.5,38.94 Z"/></g></svg>