<svg xmlns="http://www.w3.org/2000/svg" xmlns:svg="http://www.w3.org/2000/svg" id="Product_Icon" width="75" height="75" data-name="Product Icon" version="1.1" viewBox="0 0 75 75"><metadata id="metadata23"/><title id="title2">Amazon-Simple-Notification-Service-SNS_light-bg</title><rect id="Pink_Light_BG" width="75" height="75" x="0" y="0" data-name="Pink Light BG" style="fill:#cc2264"/><g id="Product_Icon-2" data-name="Product Icon"><path style="fill:#fff" id="path5" d="m 54.58,50.92 v 0.83 c 0,-0.1 0,-0.2 0,-0.3 a 2.33,2.33 0 0 1 0,-0.53 z"/><path style="fill:#fff" id="path7" d="m 41.45,31 -0.1,0.19 a 0.72,0.72 0 0 0 0.09,-0.2 z"/><path style="fill:#fff" id="path9" d="m 32.78,27.53 c -0.89,0 -8.75,-0.07 -8.75,2.9 a 1.42,1.42 0 0 0 0.1,0.55 2,2 0 0 0 0.1,0.21 l 5.44,12 v 6.21 c 0,0.63 0.26,1 0.81,1 h 0.26 a 8.76,8.76 0 0 0 3.42,-1.77 l 0.67,-0.47 a 1,1 0 0 0 0.47,-0.84 v -4.1 l 6.05,-12 v 0 a 0.72,0.72 0 0 0 0.09,-0.2 1.42,1.42 0 0 0 0.1,-0.55 c 0,-3.01 -7.86,-2.94 -8.76,-2.94 z m 0,1.84 c 3.53,0 5.8,0.62 6.56,1.06 -0.76,0.44 -3,1.06 -6.56,1.06 -3.56,0 -5.79,-0.62 -6.55,-1.06 C 27,30 29.25,29.37 32.78,29.37 Z m 0.73,13 c 0,0.14 0,0.39 0,0.65 v 3.91 l -0.39,0.24 c -0.57,0.33 -1.07,0.56 -1.64,0.86 V 43 A 1.14,1.14 0 0 0 31.4,42.6 l -4.26,-9.74 a 25.91,25.91 0 0 0 5.64,0.62 26.37,26.37 0 0 0 5.48,-0.58 z"/><path style="fill:#fff" id="path11" d="M 51,55.17 A 22.8,22.8 0 0 1 37.54,59.5 C 26.66,59.5 17.38,52.43 15.2,42 a 4.51,4.51 0 0 0 4.18,-3.49 h 5.1 V 36.62 H 19.4 A 4.49,4.49 0 0 0 15.22,33 23,23 0 0 1 50.62,19.58 L 51.76,18 a 25,25 0 0 0 -38.68,15.44 4.48,4.48 0 0 0 0,8.13 25,25 0 0 0 24.46,19.93 24.77,24.77 0 0 0 14.58,-4.71 z M 12.5,37.5 A 2.5,2.5 0 0 1 14.7,35 H 15 a 2.5,2.5 0 1 1 -2.49,2.5 z"/><path style="fill:#fff" id="path13" d="M 14.86,35 H 14.71 Z"/><path style="fill:#fff" id="path15" d="M 60,42 A 4.5,4.5 0 1 0 55.6,36.57 H 50.4 V 24.2 h 2.7 a 4.5,4.5 0 1 0 0.08,-1.61 L 49.5,22.54 a 0.83,0.83 0 0 0 -1,0.88 v 13.12 h -7.69 v 1.85 h 7.69 v 13.08 a 1,1 0 0 0 1,1 h 3.14 a 4.5,4.5 0 1 0 0,-1.77 H 50.46 L 50.41,38.38 H 55.6 A 4.51,4.51 0 0 0 60,42 Z m 0,-7 A 2.5,2.5 0 1 1 57.5,37.5 2.5,2.5 0 0 1 60,35 Z M 57.5,21.09 A 2.49,2.49 0 1 1 55,23.56 2.49,2.49 0 0 1 57.51,21.07 Z M 57,49 a 2.5,2.5 0 1 1 -2.47,2.81 v 0 c 0,-0.1 0,-0.2 0,-0.3 a 2.33,2.33 0 0 1 0.06,-0.53 v 0 A 2.51,2.51 0 0 1 57,49 Z"/></g></svg>