<svg xmlns="http://www.w3.org/2000/svg" xmlns:svg="http://www.w3.org/2000/svg" id="Layer_1" width="47" height="47" data-name="Layer 1" version="1.1" viewBox="0 0 47 47"><metadata id="metadata19"/><title id="title2">Amazon-VPC_Elastic-Network-Interface_light-bg</title><rect id="rect4515" width="47.428" height="47.669" x="-.182" y="-.458" style="fill:#693cc5;fill-opacity:1;stroke-width:1.00417948"/><path style="fill:#fff;fill-opacity:1" id="path4" d="M 23.5,47 A 23.5,23.5 0 1 1 47,23.5 23.52,23.52 0 0 1 23.5,47 Z m 0,-45 A 21.5,21.5 0 1 0 45,23.5 21.52,21.52 0 0 0 23.5,2 Z"/><path style="fill:#fff;fill-opacity:1" id="path6" d="M 12.25,35.75 H 8.87 v -2 h 2.38 V 15.12 H 8.87 v -2 h 3.38 a 1,1 0 0 1 1,1 v 20.63 a 1,1 0 0 1 -1,1 z"/><path style="fill:#fff;fill-opacity:1" id="path8" d="M 35.69,33.88 H 31 a 1,1 0 0 1 -1,-1 v -1.82 h -1.75 v 1.82 a 1,1 0 0 1 -1,1 h -9.38 a 1,1 0 0 1 -1,-1 V 31.06 H 16 a 1,1 0 0 1 -1,-1 V 16 a 1,1 0 0 1 1,-1 h 23.44 a 1,1 0 0 1 1,1 v 14.06 a 1,1 0 0 1 -1,1 h -2.75 v 1.82 a 1,1 0 0 1 -1,1 z m -3.69,-2 h 2.69 v -1.82 a 1,1 0 0 1 1,-1 h 2.75 V 17 H 17 v 12.06 h 0.87 a 1,1 0 0 1 1,1 v 1.82 h 7.38 v -1.82 a 1,1 0 0 1 1,-1 H 31 a 1,1 0 0 1 1,1 z"/><path style="fill:#fff;fill-opacity:1" id="path10" d="M 33.81,27.31 H 20.69 a 1,1 0 0 1 -1,-1 v -6.56 a 1,1 0 0 1 1,-1 h 13.12 a 1,1 0 0 1 1,1 v 6.56 a 1,1 0 0 1 -1,1 z m -12.12,-2 H 32.81 V 20.75 H 21.69 Z"/><rect style="fill:#fff;fill-opacity:1" id="rect12" width="2" height="6.56" x="26.25" y="19.75"/></svg>