<svg xmlns="http://www.w3.org/2000/svg" xmlns:svg="http://www.w3.org/2000/svg" id="svg3037" width="100%" height="100%" version="1.1" viewBox="0 -256 1950 1950"><metadata id="metadata3047"/><g id="g3039" transform="matrix(1,0,0,-1,15.186441,1359.8983)"><path id="path3041" d="M 593,640 Q 431,635 328,512 H 194 Q 112,512 56,552.5 0,593 0,671 q 0,353 124,353 6,0 43.5,-21 Q 205,982 265,960.5 325,939 384,939 q 67,0 133,23 -5,-37 -5,-66 0,-139 81,-256 z M 1664,3 q 0,-120 -73,-189.5 -73,-69.5 -194,-69.5 H 523 q -121,0 -194,69.5 -73,69.5 -73,189.5 0,53 3.5,103.5 3.5,50.5 14,109 Q 284,274 300,324 q 16,50 43,97.5 27,47.5 62,81 35,33.5 85.5,53.5 50.5,20 111.5,20 10,0 43,-21.5 33,-21.5 73,-48 40,-26.5 107,-48 67,-21.5 135,-21.5 68,0 135,21.5 67,21.5 107,48 40,26.5 73,48 33,21.5 43,21.5 61,0 111.5,-20 50.5,-20 85.5,-53.5 35,-33.5 62,-81 27,-47.5 43,-97.5 16,-50 26.5,-108.5 10.5,-58.5 14,-109 Q 1664,56 1664,3 z M 640,1280 q 0,-106 -75,-181 -75,-75 -181,-75 -106,0 -181,75 -75,75 -75,181 0,106 75,181 75,75 181,75 106,0 181,-75 75,-75 75,-181 z M 1344,896 Q 1344,737 1231.5,624.5 1119,512 960,512 801,512 688.5,624.5 576,737 576,896 576,1055 688.5,1167.5 801,1280 960,1280 q 159,0 271.5,-112.5 Q 1344,1055 1344,896 z m 576,-225 q 0,-78 -56,-118.5 Q 1808,512 1726,512 h -134 q -103,123 -265,128 81,117 81,256 0,29 -5,66 66,-23 133,-23 59,0 119,21.5 60,21.5 97.5,42.5 37.5,21 43.5,21 124,0 124,-353 z m -128,609 q 0,-106 -75,-181 -75,-75 -181,-75 -106,0 -181,75 -75,75 -75,181 0,106 75,181 75,75 181,75 106,0 181,-75 75,-75 75,-181 z" style="fill:currentColor"/></g></svg>